<svg height="512pt" viewBox="-68 0 512 512" width="512pt" xmlns="http://www.w3.org/2000/svg"><path d="m280.953125 77.871094h-30v-22.871094c0-13.785156-11.214844-25-25-25h-76.125c-13.785156 0-25 11.214844-25 25v22.871094h-30v-22.871094c0-30.328125 24.671875-55 55-55h76.125c30.328125 0 55 24.671875 55 55zm0 0" fill="#a19d8d"/><path d="m225.953125 0h-37.285156v30h37.285156c13.785156 0 25 11.214844 25 25v22.871094h30v-22.871094c0-30.328125-24.671875-55-55-55zm0 0" fill="#878477"/><path d="m313.628906 512h-251.476562c-7.941406 0-14.507813-6.191406-14.972656-14.117188l-20.957032-356.261718h323.339844l-20.957031 356.261718c-.46875 7.925782-7.03125 14.117188-14.976563 14.117188zm0 0" fill="#a19d8d"/><path d="m188.667969 512h124.964843c7.941407 0 14.507813-6.191406 14.972657-14.117188l20.957031-356.261718h-160.894531zm0 0" fill="#878477"/><path d="m360.78125 155.738281h-345.78125c-8.285156 0-15-6.714843-15-15v-32.871093c0-24.8125 20.1875-45 45-45h285.78125c24.8125 0 45 20.1875 45 45v32.871093c0 8.285157-6.714844 15-15 15zm0 0" fill="#c4c0ad"/><path d="m330.78125 62.871094h-142.113281v92.867187h172.113281c8.285156 0 15-6.714843 15-15v-32.867187c0-24.8125-20.1875-45-45-45zm0 0" fill="#a19d8d"/><path d="m187.890625 461c-8.285156 0-15-6.714844-15-15v-235c0-8.285156 6.714844-15 15-15s15 6.714844 15 15v235c0 8.285156-6.714844 15-15 15zm0 0" fill="#787465"/><path d="m187.890625 196c-.003906 0-.003906 0-.007813 0v265h.007813c8.285156 0 15-6.714844 15-15v-235c0-8.285156-6.714844-15-15-15zm0 0" fill="#4c4a40"/><path d="m247.902344 461c-.214844 0-.433594-.003906-.648438-.015625-8.277344-.351563-14.703125-7.34375-14.351562-15.621094l10-235c.355468-8.277343 7.359375-14.691406 15.625-14.351562 8.277344.351562 14.703125 7.347656 14.351562 15.625l-10 235c-.34375 8.058593-6.988281 14.363281-14.976562 14.363281zm0 0" fill="#4c4a40"/><path d="m127.878906 461c-7.988281 0-14.632812-6.304688-14.972656-14.363281l-10-235c-.355469-8.277344 6.070312-15.273438 14.347656-15.625 8.28125-.347657 15.273438 6.074219 15.625 14.351562l10 235c.351563 8.277344-6.074218 15.269531-14.351562 15.621094-.214844.011719-.433594.015625-.648438.015625zm0 0" fill="#787465"/></svg>