<svg id="Capa_1" enable-background="new 0 0 512 512" height="512" viewBox="0 0 512 512" width="512" xmlns="http://www.w3.org/2000/svg" xmlns:xlink="http://www.w3.org/1999/xlink"><linearGradient id="lg1"><stop offset="0" stop-color="#560dff"/><stop offset="1" stop-color="#73ecff"/></linearGradient><linearGradient id="SVGID_1_" gradientUnits="userSpaceOnUse" x1="74.98" x2="437.019" xlink:href="#lg1" y1="437.019" y2="74.981"/><radialGradient id="SVGID_2_" cx="256" cy="256" gradientUnits="userSpaceOnUse" r="256"><stop offset="0" stop-color="#663deb"/><stop offset="1" stop-color="#25d2db" stop-opacity="0"/></radialGradient><linearGradient id="SVGID_3_" gradientUnits="userSpaceOnUse" x1="-313.814" x2="416.66" xlink:href="#lg1" y1="825.814" y2="95.341"/><radialGradient id="SVGID_4_" cx="256" cy="256" gradientUnits="userSpaceOnUse" r="200.9"><stop offset=".1894" stop-color="#c2fff0"/><stop offset=".3274" stop-color="#befef0" stop-opacity=".83"/><stop offset=".4567" stop-color="#b3fbee" stop-opacity=".67"/><stop offset=".5826" stop-color="#a0f5eb" stop-opacity=".515"/><stop offset=".7063" stop-color="#85eee8" stop-opacity=".362"/><stop offset=".8285" stop-color="#63e4e3" stop-opacity=".212"/><stop offset=".9479" stop-color="#3ad8de" stop-opacity=".064"/><stop offset="1" stop-color="#25d2db" stop-opacity="0"/></radialGradient><linearGradient id="lg2"><stop offset=".0056" stop-color="#85ffe0"/><stop offset=".127" stop-color="#a3ffe8"/><stop offset=".2884" stop-color="#c4fff0"/><stop offset=".4545" stop-color="#defff7"/><stop offset=".6251" stop-color="#f0fffb"/><stop offset=".8031" stop-color="#fbfffe"/><stop offset="1" stop-color="#fff"/></linearGradient><linearGradient id="SVGID_5_" gradientUnits="userSpaceOnUse" x1="-82.739" x2="430.854" xlink:href="#lg2" y1="594.739" y2="81.147"/><linearGradient id="SVGID_6_" gradientUnits="userSpaceOnUse" x1="131.321" x2="419.511" xlink:href="#lg2" y1="381.576" y2="93.386"/><linearGradient id="SVGID_7_" gradientUnits="userSpaceOnUse" x1="134.84" x2="453.18" xlink:href="#lg2" y1="314.754" y2="-3.586"/><linearGradient id="SVGID_8_" gradientUnits="userSpaceOnUse" x1="231.593" x2="390.056" xlink:href="#lg2" y1="217.936" y2="59.472"/><linearGradient id="SVGID_9_" gradientUnits="userSpaceOnUse" x1="198.642" x2="299.168" xlink:href="#lg2" y1="301.838" y2="201.312"/><linearGradient id="SVGID_10_" gradientUnits="userSpaceOnUse" x1="145.659" x2="352.024" xlink:href="#lg2" y1="266.753" y2="60.388"/><linearGradient id="SVGID_11_" gradientUnits="userSpaceOnUse" x1="110.39" x2="317.631" xlink:href="#lg2" y1="308.434" y2="101.193"/><linearGradient id="SVGID_12_" gradientUnits="userSpaceOnUse" x1="243.046" x2="429.259" xlink:href="#lg2" y1="355.738" y2="169.525"/><linearGradient id="SVGID_13_" gradientUnits="userSpaceOnUse" x1="210.392" x2="397.019" xlink:href="#lg2" y1="378.676" y2="192.049"/><g><circle cx="256" cy="256" fill="url(#SVGID_1_)" r="256"/><circle cx="256" cy="256" fill="url(#SVGID_2_)" r="256"/><path d="m456.9 256c-.56 107.094-93.807 200.339-200.9 200.9-107.093-.561-200.339-93.804-200.9-200.9.559-107.094 93.807-200.338 200.9-200.9 107.092.561 200.34 93.805 200.9 200.9z" fill="url(#SVGID_3_)"/><path d="m456.9 256c-.56 107.094-93.807 200.339-200.9 200.9-107.093-.561-200.339-93.804-200.9-200.9.559-107.094 93.807-200.338 200.9-200.9 107.092.561 200.34 93.805 200.9 200.9z" fill="url(#SVGID_4_)"/><circle cx="256" cy="256" fill="url(#SVGID_5_)" r="139.4"/><path d="m278.941 349.245c-76.315.058-139.549-62.952-139.129-138.993.086-13.11 2.045-25.806 5.604-37.873-17.972 23.444-28.824 52.349-28.817 83.62.187 75.7 63.701 139.212 139.4 139.4 62.805-.036 116.912-43.907 134.005-101.691-25.69 33.286-66.021 55.423-111.063 55.537z" fill="url(#SVGID_6_)"/><path d="m302.016 193.556c.098 25.429-20.543 46.037-46.016 46.044-25.472-.009-46.115-20.616-46.016-46.044.113-25.426 20.754-46.201 46.016-46.206 25.262.007 45.905 20.78 46.016 46.206z" fill="url(#SVGID_7_)"/><path d="m286.677 193.511c.045 16.971-13.702 30.712-30.677 30.714-16.976-.002-30.722-13.744-30.677-30.714.049-16.969 13.795-30.785 30.677-30.786 16.881.002 30.629 13.817 30.677 30.786z" fill="url(#SVGID_8_)"/><path d="m244.482 271.374c0 8.492-6.875 15.371-15.361 15.363s-15.377-6.897-15.384-15.378c-.007-8.479 6.877-15.359 15.369-15.358 8.49-.001 15.374 6.881 15.376 15.373z" fill="url(#SVGID_9_)"/><path d="m141.715 233.767c-5.986 5.586-9.74 13.477-9.74 22.233.001 16.81 13.834 30.515 30.803 30.588-.001-.039-21.119-52.864-21.063-52.821z" fill="url(#SVGID_10_)"/><path d="m193.475 256c-.003-16.95-13.727-30.656-30.697-30.588-8.139.029-15.547 3.212-21.063 8.355 3.26 19.215 10.613 37.096 21.106 52.82 16.95.045 30.652-13.651 30.654-30.587z" fill="url(#SVGID_11_)"/><path d="m225.742 338.607c2.329 14.722 15.011 26.041 30.258 26.043 11.319.001 21.204-6.24 26.517-15.469-18.903-3.464-37.829-6.995-56.775-10.574z" fill="url(#SVGID_12_)"/><path d="m256 303.15c-16.965 0-30.693 13.737-30.637 30.706.005 1.617.136 3.202.38 4.752 16.414 6.887 34.364 10.689 53.199 10.638 1.195-.003 2.387-.03 3.575-.064 2.599-4.516 4.105-9.747 4.12-15.326.057-16.97-13.672-30.702-30.637-30.706z" fill="url(#SVGID_13_)"/></g></svg>