<?xml version="1.0" encoding="iso-8859-1"?>
<!-- Generator: Adobe Illustrator 19.0.0, SVG Export Plug-In . SVG Version: 6.00 Build 0)  -->
<svg version="1.1" id="Capa_1" xmlns="http://www.w3.org/2000/svg" xmlns:xlink="http://www.w3.org/1999/xlink" x="0px" y="0px"
	 viewBox="0 0 449.6 449.6" style="enable-background:new 0 0 449.6 449.6;" xml:space="preserve">
<path style="fill:#263645;" d="M311,187.6l29.6,16.8c13.2,7.2,23.6,1.2,23.6-14v-66c0-14.8-10.8-21.6-24.4-14.8l-29.2,14.8v63.2H311
	z"/>
<g>
	<path style="fill:#BEC3C7;" d="M309.4,441.6l-101.6-226c0-0.4-0.4-0.4-0.4-0.4c-0.4-0.4-0.4-0.8-0.8-1.2c-0.4-0.4-0.4-0.4-0.8-0.8
		c-0.4,0-0.4-0.4-0.8-0.4l0,0c-0.4,0-0.8,0-1.2-0.4c-0.4,0-0.8,0-0.8,0c-0.4,0-0.8,0-0.8,0c-0.4,0-0.8,0-1.2,0.4l0,0
		c-0.4,0-0.4,0.4-0.8,0.4c-0.4,0-0.8,0.4-0.8,0.8l0,0c0,0,0,0.4-0.4,0.4c-0.4,0.4-0.8,0.8-0.8,1.6L96.6,441.6c-1.2,2.8,0,6,2.8,7.2
		c0.8,0.4,1.6,0.4,2.4,0.4c2,0,4-1.2,4.8-3.2l91.2-202.8v172.4c0,3.2,2.4,5.6,5.6,5.6c3.2,0,5.6-2.4,5.6-5.6V243.2l91.6,203.2
		c0.8,2,2.8,3.2,4.8,3.2c0.8,0,1.6,0,2.4-0.4C309.4,447.6,310.6,444.4,309.4,441.6z"/>
	<path style="fill:#BEC3C7;" d="M342.2,108.8v96.4c4,2,7.6,2.8,10.8,2v-100C350.2,106.8,346.2,107.2,342.2,108.8z"/>
</g>
<path style="fill:#263645;" d="M303,93.6c-33.6,0-160,0-193.6,0c-4.4,0-8.4,3.6-8.4,8.4v110.8c0,4.4,3.6,8.4,8.4,8.4H303
	c4.4,0,8.4-3.6,8.4-8.4c0-21.6,0-80.4,0-110.8C311,97.2,307.4,93.6,303,93.6z"/>
<path style="fill:#2D3F4C;" d="M113.8,212.4V101.6c0-4.4,3.6-8.4,8.4-8.4c-5.2,0-9.6,0-12.8,0c-4.4,0-8.4,3.6-8.4,8.4v110.8
	c0,4.4,3.6,8.4,8.4,8.4h12.8C117.4,220.8,113.8,217.2,113.8,212.4z"/>
<path style="fill:#BFC4C8;" d="M202.6,46.8c0,25.6-20.8,46.8-46.8,46.8c-25.6,0-46.8-20.8-46.8-46.8C109,21.2,129.8,0,155.8,0
	S202.6,21.2,202.6,46.8z"/>
<circle style="fill:#E2E7ED;" cx="156.2" cy="46.8" r="21.6"/>
<circle style="fill:#BFC4C8;" cx="242.2" cy="54" r="39.6"/>
<circle style="fill:#E2E7ED;" cx="242.2" cy="54" r="16"/>
<path style="fill:#284856;" d="M156.2,93.6L156.2,93.6c0,12.8,9.2,23.6,20.4,23.6h89.6c11.2,0,20.4-10.4,20.4-23.6l0,0
	C286.6,93.6,156.2,93.6,156.2,93.6z"/>
<circle style="fill:#DB4F38;" cx="134.2" cy="126" r="11.6"/>
<g>
	<path style="fill:#284856;" d="M271,137.6c0,4.4-3.6,8-8,8h-33.6c-4.4,0-8-3.6-8-8l0,0c0-4.4,3.6-8,8-8H263
		C267.4,129.2,271,132.8,271,137.6L271,137.6z"/>
	<path style="fill:#284856;" d="M271,167.2c0,4.4-3.6,8-8,8h-33.6c-4.4,0-8-3.6-8-8l0,0c0-4.4,3.6-8,8-8H263
		C267.4,159.2,271,162.8,271,167.2L271,167.2z"/>
</g>
<path style="fill:#BEC3C7;" d="M93.8,114.4L93.8,114.4c-0.4,0-0.4,0-0.8,0c-4.4,0-7.6,3.6-7.6,7.6v16.8c0,4.4,3.6,7.6,7.6,7.6
	c0.4,0,0.4,0,0.8,0l0,0h7.2v-7.6V122v-7.6H93.8z"/>
<g>
</g>
<g>
</g>
<g>
</g>
<g>
</g>
<g>
</g>
<g>
</g>
<g>
</g>
<g>
</g>
<g>
</g>
<g>
</g>
<g>
</g>
<g>
</g>
<g>
</g>
<g>
</g>
<g>
</g>
</svg>
