<?xml version="1.0"?>
<svg xmlns="http://www.w3.org/2000/svg" xmlns:xlink="http://www.w3.org/1999/xlink" xmlns:svgjs="http://svgjs.com/svgjs" version="1.1" width="512" height="512" x="0" y="0" viewBox="0 0 511 511.999" style="enable-background:new 0 0 512 512" xml:space="preserve" class=""><g><path xmlns="http://www.w3.org/2000/svg" d="m464.359375 0c-.554687 0-1.105469.0234375-1.660156.0703125-3.269531.2695315-76.378907 6.9804685-103.851563 60.2929685l-99.210937-10.082031c-24.042969-2.441406-47.605469 5.960938-64.640625 23.023438l-171.167969 170.601562c-31.113281 31.167969-31.101563 81.863281.023437 113.015625l131.285157 131.394531c15.769531 15.78125 36.457031 23.683594 57.074219 23.683594 20.332031-.003906 40.597656-7.6875 56.007812-23.082031 7.808594-7.804688 7.816406-20.460938.011719-28.269531-7.800781-7.8125-20.460938-7.816407-28.269531-.015626-15.441407 15.429688-40.808594 15.167969-56.539063-.578124l-131.289063-131.394532c-15.5625-15.574218-15.566406-40.921875-.046874-56.46875l171.171874-170.605468c8.535157-8.546876 20.320313-12.75 32.335938-11.53125l152.109375 15.460937 1.980469 19.4375c-27.707032 10.328125-54.074219 11.976563-54.675782 12.011719-11.011718.59375-19.464843 9.996094-18.886718 21.011718.5625 10.667969 9.386718 18.941407 19.945312 18.941407.355469 0 .710938-.007813 1.066406-.027344 1.28125-.066406 26.863282-1.53125 56.710938-11.082031l9.304688 91.378906c1.222656 11.992188-2.957032 23.757812-11.472657 32.292969l-97.523437 96.09375c-7.863282 7.746093-7.957032 20.40625-.210938 28.269531 7.75 7.863281 20.40625 7.957031 28.269532.207031l97.582031-96.148437c.03125-.03125.0625-.0625.097656-.097656 17.085937-17.070313 25.484375-40.640626 23.035156-64.667969l-10.613281-104.1875c13.445312-7.871094 24.78125-17.144531 33.84375-27.714844 17.304688-20.199219 26.074219-44.621094 26.054688-72.582031v-.796875c0-26.386719-21.464844-47.855469-47.851563-47.855469zm7.871094 48.664062c.015625 22.34375-8.074219 40.472657-24.550781 54.808594l-1.855469-18.222656c-.960938-9.4375-8.425781-16.902344-17.867188-17.863281l-23.1875-2.355469c20.460938-19.53125 54.269531-24.308594 60.308594-25.019531 4.003906.367187 7.152344 3.746093 7.152344 7.84375zm-162.011719 244.21875c-7.804688 7.808594-20.460938 7.808594-28.269531 0-7.808594-7.808593-7.808594-20.464843 0-28.269531 2.132812-2.132812 2.519531-4.605469 2.46875-6.304687-.078125-2.730469-1.269531-5.382813-3.351563-7.460938l-12.246094-12.25c-3.175781-3.175781-7.261718-4.949218-11.503906-4.996094-2.976562-.027343-7.222656.742188-11.085937 4.609376l-3.15625 3.15625c-6.515625 6.511718-6.753907 17.273437-.527344 23.503906l12.953125 12.949218c10.613281 10.613282 16.539062 24.617188 16.695312 39.4375.152344 15.027344-5.640624 29.1875-16.324218 39.867188l-1.472656 1.472656c-10.804688 10.808594-24.722657 16.195313-38.730469 16.195313-11.898438.003906-23.855469-3.898438-34.039063-11.652344l-8.371094 8.078125c-3.878906 3.742188-8.882812 5.601562-13.878906 5.601562-5.234375 0-10.464844-2.042968-14.386718-6.109374-7.667969-7.945313-7.4375-20.601563.507812-28.265626l7.492188-7.230468c-8.429688-9.132813-13.191407-20.757813-13.453126-32.972656-.28125-13.3125 4.792969-25.878907 14.292969-35.378907 7.808594-7.804687 20.464844-7.804687 28.273438 0 7.804687 7.808594 7.804687 20.464844 0 28.273438-1.773438 1.769531-2.644531 3.875-2.59375 6.253906.054687 2.554687 1.195312 5.074219 3.21875 7.09375l21.054687 21.054687c6.59375 6.59375 16.199219 6.929688 22.34375.789063l1.472656-1.476563c3.019532-3.015624 4.65625-6.984374 4.613282-11.179687-.046875-4.296875-1.816406-8.410156-4.984375-11.578125l-12.957031-12.953125c-21.921876-21.925781-21.683594-57.832031.527343-80.046875l3.160157-3.15625c10.535156-10.535156 24.425781-16.316406 39.171874-16.316406h.617188c10.195312.113281 20.011719 2.980468 28.609375 8.242187l8.585937-8.867187c7.683594-7.933594 20.335938-8.136719 28.269532-.457032 7.929687 7.679688 8.132812 20.335938.453125 28.269532l-8.476563 8.753906c5.683594 8.105469 8.898438 17.632812 9.191406 27.574219.394532 13.523437-4.632812 26.21875-14.164062 35.746093zm0 0" fill="#fff8f8" data-original="#000000" style="" class=""/></g></svg>
