<?xml version="1.0"?>
<svg xmlns="http://www.w3.org/2000/svg" xmlns:xlink="http://www.w3.org/1999/xlink" xmlns:svgjs="http://svgjs.com/svgjs" version="1.1" width="512" height="512" x="0" y="0" viewBox="0 0 64 64" style="enable-background:new 0 0 512 512" xml:space="preserve" class=""><g><g xmlns="http://www.w3.org/2000/svg"><g><g><path d="m39 27c-1.654 0-3-1.346-3-3s1.346-3 3-3 3 1.346 3 3-1.346 3-3 3z" fill="#f0bc5e" data-original="#f0bc5e" style="" class=""/></g></g><g><g><path d="m16 51c-1.654 0-3-1.346-3-3s1.346-3 3-3 3 1.346 3 3-1.346 3-3 3z" fill="#f0bc5e" data-original="#f0bc5e" style="" class=""/></g></g><g><g><path d="m12 19.257-1.158-3.472c-.396-1.188-1.341-2.135-2.529-2.529l-3.471-1.16 2.842-.947c1.582-.528 2.841-1.787 3.368-3.368l.948-2.848 1.158 3.477c.396 1.188 1.342 2.134 2.53 2.53l3.473 1.155-3.473 1.16c-1.189.396-2.134 1.342-2.53 2.53z" fill="#f0bc5e" data-original="#f0bc5e" style="" class=""/></g></g><g><g><path d="m52 59.257-1.158-3.472c-.396-1.188-1.341-2.135-2.529-2.529l-3.471-1.16 2.842-.947c1.582-.528 2.841-1.787 3.368-3.368l.948-2.848 1.158 3.477c.396 1.188 1.342 2.134 2.53 2.53l3.473 1.155-3.473 1.16c-1.189.396-2.134 1.342-2.53 2.53z" fill="#f0bc5e" data-original="#f0bc5e" style="" class=""/></g></g><g><path d="m42 1h-6v18h6zm-2 16h-2v-14h2z" fill="#f9f9f9" data-original="#000000" style="" class=""/><path d="m42 29h-6v18h6zm-2 16h-2v-14h2z" fill="#f9f9f9" data-original="#000000" style="" class=""/><path d="m16 27h18v-6h-18zm2-4h14v2h-14z" fill="#f9f9f9" data-original="#000000" style="" class=""/><path d="m62 21h-18v6h18zm-2 4h-14v-2h14z" fill="#f9f9f9" data-original="#000000" style="" class=""/><path d="m25 13c1.654 0 3-1.346 3-3s-1.346-3-3-3-3 1.346-3 3 1.346 3 3 3zm0-4c.551 0 1 .448 1 1s-.449 1-1 1-1-.448-1-1 .449-1 1-1z" fill="#f9f9f9" data-original="#000000" style="" class=""/><path d="m1 51h10v-6h-10zm2-4h6v2h-6z" fill="#f9f9f9" data-original="#000000" style="" class=""/><path d="m13 63h6v-10h-6zm2-8h2v6h-2z" fill="#f9f9f9" data-original="#000000" style="" class=""/><path d="m21 51h10v-6h-10zm2-4h6v2h-6z" fill="#f9f9f9" data-original="#000000" style="" class=""/><path d="m13 43h6v-10h-6zm2-8h2v6h-2z" fill="#f9f9f9" data-original="#000000" style="" class=""/><path d="m30 13.172h2v5.657h-2z" transform="matrix(.707 -.707 .707 .707 -2.234 26.607)" fill="#f9f9f9" data-original="#000000" style="" class=""/><path d="m28 38c0-1.654-1.346-3-3-3s-3 1.346-3 3 1.346 3 3 3 3-1.346 3-3zm-4 0c0-.552.449-1 1-1s1 .448 1 1-.449 1-1 1-1-.448-1-1z" fill="#f9f9f9" data-original="#000000" style="" class=""/><path d="m28.172 31h5.657v2h-5.657z" transform="matrix(.707 -.707 .707 .707 -13.548 31.293)" fill="#f9f9f9" data-original="#000000" style="" class=""/><path d="m53 35c-1.654 0-3 1.346-3 3s1.346 3 3 3 3-1.346 3-3-1.346-3-3-3zm0 4c-.551 0-1-.448-1-1s.449-1 1-1 1 .448 1 1-.449 1-1 1z" fill="#f9f9f9" data-original="#000000" style="" class=""/><path d="m46 29.172h2v5.657h-2z" transform="matrix(.707 -.707 .707 .707 -8.861 42.607)" fill="#f9f9f9" data-original="#000000" style="" class=""/><path d="m53 13c1.654 0 3-1.346 3-3s-1.346-3-3-3-3 1.346-3 3 1.346 3 3 3zm0-4c.551 0 1 .448 1 1s-.449 1-1 1-1-.448-1-1 .449-1 1-1z" fill="#f9f9f9" data-original="#000000" style="" class=""/><path d="m44.172 15h5.657v2h-5.657z" transform="matrix(.707 -.707 .707 .707 2.452 37.92)" fill="#f9f9f9" data-original="#000000" style="" class=""/><path d="m7 37.172h2v5.657h-2z" transform="matrix(.707 -.707 .707 .707 -25.941 17.373)" fill="#f9f9f9" data-original="#000000" style="" class=""/><path d="m2 33.586h2v2.828h-2z" transform="matrix(.707 -.707 .707 .707 -23.87 12.373)" fill="#f9f9f9" data-original="#000000" style="" class=""/><path d="m5.172 55h5.657v2h-5.657z" transform="matrix(.707 -.707 .707 .707 -37.255 22.059)" fill="#f9f9f9" data-original="#000000" style="" class=""/><path d="m1.586 60h2.828v2h-2.828z" transform="matrix(.707 -.707 .707 .707 -42.255 19.988)" fill="#f9f9f9" data-original="#000000" style="" class=""/><path d="m23 53.172h2v5.657h-2z" transform="matrix(.707 -.707 .707 .707 -32.569 33.373)" fill="#f9f9f9" data-original="#000000" style="" class=""/><path d="m28 59.586h2v2.828h-2z" transform="matrix(.707 -.707 .707 .707 -34.64 38.373)" fill="#f9f9f9" data-original="#000000" style="" class=""/><path d="m11 1h2v2h-2z" fill="#f9f9f9" data-original="#000000" style="" class=""/><path d="m1 11h2v2h-2z" fill="#f9f9f9" data-original="#000000" style="" class=""/><path d="m11 21h2v2h-2z" fill="#f9f9f9" data-original="#000000" style="" class=""/><path d="m5 3.172h2v5.657h-2z" transform="matrix(.707 -.707 .707 .707 -2.485 6)" fill="#f9f9f9" data-original="#000000" style="" class=""/><path d="m3.172 17h5.657v2h-5.657z" transform="matrix(.707 -.707 .707 .707 -10.971 9.515)" fill="#f9f9f9" data-original="#000000" style="" class=""/><path d="m17 15.172h2v5.657h-2z" transform="matrix(.707 -.707 .707 .707 -7.456 18)" fill="#f9f9f9" data-original="#000000" style="" class=""/><path d="m15.172 5h5.657v2h-5.657z" transform="matrix(.707 -.707 .707 .707 1.029 14.485)" fill="#f9f9f9" data-original="#000000" style="" class=""/><path d="m41 51h2v2h-2z" fill="#f9f9f9" data-original="#000000" style="" class=""/><path d="m51 61h2v2h-2z" fill="#f9f9f9" data-original="#000000" style="" class=""/><path d="m45 43.172h2v5.657h-2z" transform="matrix(.707 -.707 .707 .707 -19.054 46)" fill="#f9f9f9" data-original="#000000" style="" class=""/><path d="m43.172 57h5.657v2h-5.657z" transform="matrix(.707 -.707 .707 .707 -27.539 49.515)" fill="#f9f9f9" data-original="#000000" style="" class=""/><path d="m57 55.172h2v5.657h-2z" transform="matrix(.707 -.707 .707 .707 -24.024 58)" fill="#f9f9f9" data-original="#000000" style="" class=""/><path d="m55.172 45h5.657v2h-5.657z" transform="matrix(.707 -.707 .707 .707 -15.539 54.485)" fill="#f9f9f9" data-original="#000000" style="" class=""/><path d="m61 51h2v2h-2z" fill="#f9f9f9" data-original="#000000" style="" class=""/></g></g></g></svg>
