<svg id="_x33_0" enable-background="new 0 0 64 64" height="512" viewBox="0 0 64 64" width="512" xmlns="http://www.w3.org/2000/svg"><g><g><g><circle cx="16.124" cy="48.123" fill="#ffc729" r="2"/></g><g><path d="m22.124 46.046h8v4h-8z" fill="#fcd770" transform="matrix(1 -.008 .008 1 -.372 .204)"/></g><g><path d="m14.202 54.123h4v8h-4z" fill="#fcd770" transform="matrix(1 -.008 .008 1 -.45 .127)"/></g><g><path d="m2.125 46.201h8v4h-8z" fill="#fcd770" transform="matrix(1 -.008 .008 1 -.373 .049)"/></g><g><path d="m14.047 34.124h4v8h-4z" fill="#fcd770" transform="matrix(1 -.008 .008 1 -.295 .126)"/></g><g><path d="m37.046 29.946h4v16h-4z" fill="#fcd770" transform="matrix(1 -.008 .008 1 -.293 .304)"/></g><g><path d="m16.938 22.054h16v4h-16z" fill="#fcd770" transform="matrix(1 -.008 .008 1 -.186 .194)"/></g><g><path d="m36.829 1.946h4v16h-4z" fill="#fcd770" transform="matrix(1 -.008 .008 1 -.076 .301)"/></g><g><path d="m44.937 21.838h16v4h-16z" fill="#fcd770" transform="matrix(1 -.008 .008 1 -.183 .411)"/></g><g><circle cx="53.046" cy="37.837" fill="#ffc729" r="2"/></g><g><circle cx="52.829" cy="9.838" fill="#ffc729" r="2"/></g><g><circle cx="24.83" cy="10.055" fill="#ffc729" r="2"/></g><g><circle cx="25.047" cy="38.054" fill="#ffc729" r="2"/></g><g><circle cx="38.938" cy="23.946" fill="#ffc729" r="2"/></g><g><path d="m15.846 12.225-.628.215c-1.486.502-2.647 1.691-3.135 3.184l-.205.632-.215-.628c-.512-1.486-1.691-2.657-3.184-3.135l-.632-.205c1.885-.645 3.354-2.136 3.969-4.031l.215.628c.512 1.486 1.691 2.647 3.184 3.135z" fill="#ff826e"/></g><g><path d="m56.155 51.913-.628.215c-1.486.502-2.647 1.691-3.135 3.184l-.205.632-.215-.628c-.512-1.486-1.691-2.657-3.184-3.135l-.632-.205c1.885-.645 3.354-2.136 3.969-4.031l.215.628c.512 1.486 1.691 2.647 3.184 3.135z" fill="#ff826e"/></g></g><g><path d="m38.939 26.946h.021c1.654-.014 2.989-1.369 2.977-3.023-.013-1.646-1.356-2.977-3-2.977-.008 0-.016 0-.024 0-1.654.014-2.99 1.369-2.977 3.023.014 1.646 1.358 2.977 3.003 2.977zm-.009-4h.008c.547 0 .995.443 1 .992.004.552-.441 1.004-.992 1.008-.002 0-.005 0-.007 0-.548 0-.997-.443-1.001-.992-.004-.552.441-1.004.992-1.008z"/><path d="m41.759.924-6 .046.14 18 6-.047zm-3.875 16.03-.108-14 2-.015.108 13.999z"/><path d="m41.977 28.923-6 .046.14 18 6-.047zm-3.876 16.03-.108-14 2-.015.108 13.999z"/><path d="m15.915 21.124.047 6 18-.14-.047-6zm2.031 3.984-.016-2 14-.108.016 2z"/><path d="m61.96 26.768-.046-6-18 .14.046 6zm-2.03-3.985.015 2-14 .108-.015-2z"/><path d="m24.829 13.055h.024c1.654-.014 2.99-1.369 2.977-3.023-.013-1.646-1.356-2.977-3.001-2.977-.007 0-.015 0-.021 0-1.654.014-2.989 1.369-2.977 3.023.006.802.324 1.553.896 2.114.563.557 1.31.863 2.102.863zm-.008-4h.007c.548 0 .997.443 1.001.992.002.268-.1.519-.287.709-.188.19-.438.297-.705.299-.267.027-.519-.1-.709-.287-.19-.188-.296-.438-.298-.705-.005-.551.441-1.004.991-1.008z"/><path d="m16.123 51.123h.024c.802-.006 1.553-.323 2.115-.895.562-.57.868-1.326.862-2.128-.013-1.646-1.356-2.977-2.999-2.977-.008 0-.016 0-.024 0-.802.006-1.553.323-2.115.895s-.869 1.326-.862 2.128.324 1.553.896 2.114c.565.557 1.312.863 2.103.863zm-.711-3.701c.188-.19.438-.296.705-.298h.008c.547 0 .995.443 1 .992.002.268-.1.519-.288.709-.187.19-.437.296-.705.298-.242-.025-.519-.1-.709-.287s-.296-.438-.298-.705c-.002-.268.099-.519.287-.709z"/><path d="m1.102 45.24.046 5.999 10-.077-.047-6zm2.03 3.984-.015-1.999 6-.047.016 2z"/><path d="m13.163 53.146.078 10 6-.047-.078-10zm2.062 7.985-.046-6 2-.016.046 6z"/><path d="m21.101 45.085.046 6 10-.078-.047-6zm2.031 3.984-.015-2 6-.047.016 2z"/><path d="m19.008 33.101-6 .047.078 10 6-.047zm-3.938 8.031-.046-6 2-.016.046 6z"/><path d="m29.876 13.179h2.001v5.657h-2.001z" transform="matrix(.702 -.713 .713 .702 -2.193 26.778)"/><path d="m25.069 41.054c.802-.006 1.553-.323 2.115-.895s.869-1.327.863-2.129c-.013-1.646-1.357-2.977-3.001-2.977-.007 0-.015 0-.021 0h-.001c-.801.007-1.552.324-2.114.896-.563.571-.869 1.327-.862 2.128.006.801.324 1.552.895 2.114.565.557 1.312.862 2.103.862.007.001.015.001.023.001zm-1.022-2.992c-.002-.268.1-.519.287-.709.188-.19.438-.297.704-.299h.007c.548 0 .997.443 1.001.992.002.268-.1.52-.288.71s-.438.296-.705.298c-.261-.017-.519-.1-.709-.287-.189-.188-.295-.438-.297-.705z"/><path d="m28.171 31.008h5.657v1.999h-5.657z" transform="matrix(.702 -.713 .713 .702 -13.558 31.649)"/><path d="m53.044 34.837c-.007 0-.015 0-.021 0-1.654.014-2.989 1.369-2.977 3.023.013 1.646 1.356 2.977 3 2.977h.024c1.654-.014 2.989-1.369 2.977-3.023-.014-1.646-1.359-2.977-3.003-2.977zm.01 4c-.26.022-.519-.1-.709-.287s-.296-.438-.298-.705c-.004-.552.441-1.004.991-1.008h.007c.548 0 .997.443 1.001.992.004.551-.441 1.004-.992 1.008z"/><path d="m45.999 29.055h2.001v5.657h-2.001z" transform="matrix(.702 -.713 .713 .702 -8.693 43.015)"/><path d="m52.828 12.838h.024c1.654-.014 2.99-1.369 2.977-3.023-.006-.801-.324-1.552-.895-2.114-.565-.557-1.311-.862-2.104-.862-.008 0-.017 0-.024 0-.801.007-1.552.324-2.114.896-.563.571-.869 1.327-.862 2.128.006.801.324 1.552.895 2.114.564.555 1.31.861 2.103.861zm-.712-3.701c.188-.19.438-.297.705-.299h.008c.264 0 .513.102.701.287.19.188.296.438.298.705s-.1.519-.287.709c-.188.19-.438.297-.705.299-.266.021-.519-.1-.709-.287s-.296-.438-.298-.705.1-.519.287-.709z"/><path d="m44.047 14.885h5.656v1.999h-5.656z" transform="matrix(.702 -.713 .713 .702 2.673 38.15)"/><path d="m7.062 37.357h2.001v5.657h-2.001z" transform="matrix(.702 -.713 .713 .702 -26.229 17.736)"/><path d="m2.024 33.811h2.001v2.828h-2.001z" transform="matrix(.702 -.713 .713 .702 -24.196 12.664)"/><path d="m5.358 55.185h5.656v1.999h-5.656z" transform="matrix(.702 -.713 .713 .702 -37.599 22.608)"/><path d="m1.811 60.224h2.829v1.999h-2.829z" transform="matrix(.702 -.713 .713 .702 -42.671 20.576)"/><path d="m23.186 53.233h2.001v5.657h-2.001z" transform="matrix(.702 -.713 .713 .702 -32.731 33.963)"/><path d="m28.225 59.608h2.001v2.828h-2.001z" transform="matrix(.702 -.713 .713 .702 -34.761 39.03)"/><path d="m4.687 12.306 3.481 1.134c1.19.386 2.144 1.324 2.549 2.511l1.186 3.462 1.131-3.481c.386-1.19 1.325-2.144 2.51-2.549l3.463-1.183-3.481-1.134c-1.191-.386-2.144-1.324-2.549-2.511l-1.186-3.462-.926 2.852c-.515 1.585-1.764 2.854-3.341 3.393zm7.066-1.744c.438.663 1.005 1.235 1.664 1.679-.612.427-1.141.964-1.558 1.582-.454-.651-1.034-1.21-1.704-1.638.613-.456 1.153-1.003 1.598-1.623z"/><path d="m10.768 1.156h2v2h-2z" transform="matrix(1 -.008 .008 1 -.017 .092)"/><path d="m.846 11.233h2v2h-2z" transform="matrix(1 -.008 .008 1 -.096 .015)"/><path d="m10.923 21.155h2v2h-2z" transform="matrix(1 -.008 .008 1 -.167 .091)"/><path d="m4.799 3.374h2.001v5.657h-2.001z" transform="matrix(.702 -.713 .713 .702 -2.689 5.984)"/><path d="m3.064 17.203h5.657v1.999h-5.657z" transform="matrix(.702 -.713 .713 .702 -11.212 9.63)"/><path d="m16.892 15.28h2.001v5.657h-2.001z" transform="matrix(.702 -.713 .713 .702 -7.565 18.15)"/><path d="m14.97 5.11h5.657v1.999h-5.657z" transform="matrix(.702 -.713 .713 .702 .959 14.509)"/><path d="m59.315 51.884-3.48-1.129c-1.191-.387-2.145-1.325-2.55-2.51l-1.185-3.467-.927 2.854c-.515 1.585-1.764 2.854-3.341 3.394l-2.841.972 3.485 1.13c1.191.387 2.144 1.325 2.549 2.51l1.185 3.466 1.131-3.483c.387-1.191 1.325-2.145 2.511-2.549zm-7.148 1.628c-.454-.651-1.035-1.21-1.704-1.638.613-.455 1.152-1.003 1.598-1.623.438.663 1.006 1.234 1.665 1.679-.612.425-1.142.964-1.559 1.582z"/><path d="m41.155 50.922h2v2h-2z" transform="matrix(1 -.008 .008 1 -.404 .331)"/><path d="m51.232 60.844h2v2h-2z" transform="matrix(1 -.008 .008 1 -.482 .41)"/><path d="m45.108 43.062h2.001v5.657h-2.001z" transform="matrix(.702 -.713 .713 .702 -18.942 46.541)"/><path d="m43.373 56.891h5.657v1.999h-5.657z" transform="matrix(.702 -.713 .713 .702 -27.466 50.21)"/><path d="m57.2 54.969h2.001v5.657h-2.001z" transform="matrix(.702 -.713 .713 .702 -23.818 58.724)"/><path d="m55.279 44.798h5.657v1.999h-5.657z" transform="matrix(.702 -.713 .713 .702 -15.293 55.086)"/><path d="m61.154 50.767h2v2h-2z" transform="matrix(1 -.008 .008 1 -.403 .487)"/></g></g></svg>